<svg width="34" height="35" viewBox="0 0 34 35" fill="none" xmlns="http://www.w3.org/2000/svg">
<path d="M33.0502 19.3949C33.5644 18.5249 33.2759 17.4026 32.4058 16.8885L29.7166 15.2992C30.8182 15.024 31.7955 14.3873 32.4505 13.2789C33.257 11.9142 33.3493 9.96856 31.1492 8.66837C28.2544 6.95761 24.0145 8.61082 21.8571 9.66717C21.7409 7.26774 21.0701 2.71251 18.1757 1.00198C15.9756 -0.298206 14.3157 0.721091 13.5092 2.08581C12.8545 3.19374 12.78 4.36456 13.0845 5.47072L10.3495 3.85445C9.47948 3.34029 8.35721 3.62882 7.84305 4.49886L5.05625 9.21453L6.64546 10.1537L0.585629 20.4078C0.071468 21.2778 0.359977 22.4001 1.23004 22.9143L20.1274 34.082C20.9974 34.5961 22.1197 34.3076 22.6338 33.4376L28.6939 23.1831L30.2634 24.1106L33.0502 19.3949ZM30.218 10.2442C31.192 10.8198 31.3846 11.4858 30.8748 12.3483C29.8407 14.0983 27.3296 13.8881 25.4927 12.8025L22.8258 11.2265C24.9276 10.2255 28.2589 9.08647 30.218 10.2442ZM17.2446 2.57742C19.2041 3.73539 19.8874 7.2469 20.0245 9.57048L17.3569 7.99402C15.5199 6.90844 14.0651 4.74194 15.0992 2.99202C15.6087 2.12987 16.2706 2.0018 17.2446 2.57742ZM29.619 21.6041L19.3787 15.5524L21.2345 12.4122L31.4748 18.4639L29.619 21.6041ZM9.41869 5.42948L19.659 11.4812L17.8032 14.6214L7.56292 8.56971L9.41869 5.42948ZM8.22111 11.0843L16.8722 16.1968L10.8124 26.451L2.16127 21.3384L8.22111 11.0843ZM21.059 32.5064L12.3878 27.382L18.4476 17.1279L27.1188 22.2523L21.059 32.5064Z" fill="#E1A230"/>
</svg>
