<svg aria-hidden="true" style="position: absolute; width: 0; height: 0; overflow: hidden;" version="1.1" xmlns="http://www.w3.org/2000/svg" xmlns:xlink="http://www.w3.org/1999/xlink">
<defs>

<symbol id="icon-instagram" viewBox="0 0 32 32">
<path d="M12.718 2.905c0.261-0.001 0.522-0.001 0.784-0.002 0.545-0.001 1.090-0.001 1.634-0 0.691 0.001 1.382-0.001 2.074-0.004 0.539-0.002 1.078-0.002 1.616-0.002 0.255-0 0.509-0.001 0.764-0.002 2.569-0.012 5.476 0.030 7.519 1.804 2.067 2.129 1.989 5.25 1.986 8.018 0 0.261 0.001 0.522 0.002 0.784 0.001 0.545 0.001 1.090 0 1.634-0.001 0.691 0.001 1.382 0.004 2.074 0.002 0.539 0.002 1.078 0.002 1.616 0 0.255 0.001 0.509 0.002 0.764 0.012 2.569-0.030 5.476-1.804 7.519-2.129 2.067-5.25 1.989-8.018 1.986-0.261 0-0.522 0.001-0.784 0.002-0.545 0.001-1.090 0.001-1.634 0-0.691-0.001-1.382 0.001-2.074 0.004-0.539 0.002-1.078 0.002-1.616 0.002-0.255 0-0.509 0.001-0.764 0.002-2.569 0.012-5.476-0.030-7.519-1.804-2.067-2.129-1.989-5.25-1.986-8.018-0.001-0.261-0.001-0.522-0.002-0.784-0.001-0.545-0.001-1.090-0-1.634 0.001-0.691-0.001-1.382-0.004-2.074-0.002-0.539-0.002-1.078-0.002-1.616-0-0.255-0.001-0.509-0.002-0.764-0.012-2.569 0.030-5.476 1.804-7.519 2.129-2.067 5.25-1.989 8.018-1.986zM5.216 5.808c-1.259 1.569-1.396 3.662-1.395 5.604-0 0.109-0.001 0.219-0.001 0.332-0.001 0.358-0.001 0.716-0.002 1.073-0 0.252-0.001 0.504-0.001 0.756-0.001 0.527-0.001 1.053-0.001 1.58 0 0.67-0.002 1.34-0.004 2.010-0.001 0.52-0.002 1.040-0.002 1.56-0 0.247-0.001 0.493-0.002 0.74-0.038 3.86-0.038 3.86 1.779 7.12 1.573 1.444 3.78 1.597 5.824 1.596 0.109 0 0.219 0.001 0.332 0.001 0.358 0.001 0.716 0.001 1.073 0.002 0.252 0 0.504 0.001 0.756 0.001 0.527 0.001 1.053 0.001 1.58 0.001 0.67 0 1.34 0.002 2.010 0.004 0.52 0.001 1.040 0.002 1.56 0.002 0.247 0 0.493 0.001 0.74 0.002 3.86 0.038 3.86 0.038 7.12-1.779 1.444-1.573 1.597-3.78 1.596-5.824 0-0.109 0.001-0.219 0.001-0.332 0.001-0.358 0.001-0.716 0.002-1.073 0-0.252 0.001-0.504 0.001-0.756 0.001-0.527 0.001-1.053 0.001-1.58 0-0.67 0.002-1.34 0.004-2.010 0.001-0.52 0.002-1.040 0.002-1.56 0-0.247 0.001-0.493 0.002-0.74 0.038-3.86 0.038-3.86-1.779-7.12-1.573-1.444-3.78-1.597-5.824-1.596-0.109-0-0.219-0.001-0.332-0.001-0.358-0.001-0.716-0.001-1.073-0.002-0.252-0-0.504-0.001-0.756-0.001-0.527-0.001-1.053-0.001-1.58-0.001-0.67 0-1.34-0.002-2.010-0.004-0.52-0.001-1.040-0.002-1.56-0.002-0.247-0-0.493-0.001-0.74-0.002-4.017-0.028-4.017-0.028-7.321 1.999z"></path>
<path d="M20.224 11.008c1.107 0.88 1.977 2.306 2.176 3.712 0.18 2.247-0.183 3.963-1.611 5.759-1.053 1.153-2.557 1.874-4.104 1.96-2.11 0.072-3.795-0.401-5.389-1.856-1.425-1.528-1.799-3.228-1.74-5.242 0.088-1.622 0.897-3.148 2.083-4.253 2.614-2.052 5.931-2.057 8.585-0.080zM11.791 12.29c-1.11 1.413-1.463 2.955-1.296 4.734 0.249 1.341 0.972 2.539 2.048 3.384 1.501 1.019 3.117 1.349 4.905 1.017 1.515-0.447 2.655-1.387 3.438-2.741 0.737-1.391 0.871-3.006 0.425-4.515-0.601-1.555-1.652-2.576-3.116-3.306-2.266-0.905-4.74-0.357-6.404 1.428z"></path>
<path d="M23.040 8.192c0.214 0.037 0.428 0.079 0.64 0.128 0.049 0.212 0.091 0.426 0.128 0.64-0.128 0.128-0.128 0.128-0.448 0.144-0.32-0.016-0.32-0.016-0.448-0.144-0.016-0.32-0.016-0.32 0-0.64 0.042-0.042 0.084-0.084 0.128-0.128z"></path>
</symbol>

<symbol id="icon-gift" viewBox="0 0 31 32">
<path d="M30.217 17.732c0.47-0.795 0.206-1.822-0.589-2.292l-2.459-1.453c1.007-0.252 1.901-0.834 2.5-1.847 0.737-1.248 0.822-3.027-1.19-4.215-2.647-1.564-6.523-0.053-8.496 0.913-0.106-2.194-0.72-6.359-3.366-7.922-2.012-1.189-3.529-0.257-4.267 0.991-0.599 1.013-0.667 2.083-0.388 3.095l-2.501-1.478c-0.795-0.47-1.822-0.206-2.292 0.589l-2.548 4.311 1.453 0.859-5.54 9.375c-0.47 0.795-0.206 1.822 0.589 2.292l17.278 10.21c0.795 0.47 1.822 0.206 2.292-0.589l5.541-9.376 1.435 0.848 2.548-4.311zM27.628 9.366c0.89 0.526 1.067 1.135 0.601 1.924-0.945 1.6-3.241 1.408-4.921 0.415l-2.438-1.441c1.922-0.915 4.967-1.957 6.759-0.898zM15.767 2.357c1.792 1.059 2.416 4.269 2.542 6.394l-2.439-1.441c-1.68-0.993-3.010-2.973-2.064-4.573 0.466-0.788 1.071-0.905 1.962-0.379zM27.080 19.752l-9.363-5.533 1.697-2.871 9.363 5.533-1.697 2.871zM8.611 4.964l9.363 5.533-1.697 2.871-9.363-5.533 1.697-2.871zM7.516 10.134l7.91 4.674-5.54 9.375-7.91-4.674 5.54-9.375zM19.254 29.72l-7.928-4.685 5.54-9.375 7.928 4.685-5.54 9.375z"></path>
</symbol>

<symbol id="icon-star" viewBox="0 0 32 32">
<path fill="#e1a230" style="fill: var(--color1, #e1a230)" d="M16 0l4.321 11.679 11.679 4.321-11.679 4.321-4.321 11.679-4.321-11.679-11.679-4.321 11.679-4.321 4.321-11.679z"></path>
</symbol>

<symbol id="icon-arrow" viewBox="0 0 24 24">
<path d="M7.406 8.578l4.594 4.594 4.594-4.594 1.406 1.406-6 6-6-6z"></path>
</symbol>

<!-- burgerMenu -->
<symbol id="icon-burger-menu" viewBox="0 0 48 32">
<path xmlns="http://www.w3.org/2000/svg" d="M4 31c-0.708 0-1.302-0.24-1.78-0.72s-0.718-1.073-0.72-1.78c-0.002-0.707 0.238-1.3 0.72-1.78s1.075-0.72 1.78-0.72h40c0.708 0 1.303 0.24 1.783 0.72s0.719 1.073 0.717 1.78c-0.002 0.707-0.242 1.301-0.72 1.782s-1.072 0.721-1.78 0.718h-40zM4 18.5c-0.708 0-1.302-0.24-1.78-0.72s-0.718-1.073-0.72-1.78c-0.002-0.707 0.238-1.3 0.72-1.78s1.075-0.72 1.78-0.72h40c0.708 0 1.303 0.24 1.783 0.72s0.719 1.073 0.717 1.78c-0.002 0.707-0.242 1.301-0.72 1.782s-1.072 0.721-1.78 0.718h-40zM4 6c-0.708 0-1.302-0.24-1.78-0.72s-0.718-1.073-0.72-1.78c-0.002-0.707 0.238-1.3 0.72-1.78s1.075-0.72 1.78-0.72h40c0.708 0 1.303 0.24 1.783 0.72s0.719 1.073 0.717 1.78c-0.002 0.707-0.242 1.301-0.72 1.782s-1.072 0.721-1.78 0.718h-40z"></path>
</symbol>


</defs>
</svg>